# xmcd
#
# Track frame offsets:
#	150
#	13487
#	25871
#	36719
#	51414
#	62962
#	76496
#	90512
#	107728
#	124072
#	139150
#	155652
#	170056
#	182555
#	199555
#	212307
#	226141
#	244221
#	261244
#	277297
#
# Disc length: 3913 seconds
#
# Revision: 0
# Processed by: cddbd v1.5.2PL0 Copyright (c) Steve Scherf et al.
# Submitted via: dBpowerAMP V4.0
#
DISCID=2b0f4714
DTITLE=Various Artist - Bjud upp till dans - CD 1
DYEAR=2005
DGENRE=Dansband
TTITLE0=Lasse Stefanz - Det här är bara början
TTITLE1=Drifters - Kommer tid kommer råd
TTITLE2=Christer Sjögren - Return To Sender
TTITLE3=Sten and Stanley - Jag ger dig en blomma
TTITLE4=Fernandoz - Guld och gröna skogar
TTITLE5=Lotta Engbergs - Åh vad jag älskade dig just då
TTITLE6=Arvingarna - De ensammas promenad
TTITLE7=Matz Bladhs - Vid silverforsens strand
TTITLE8=Shanes - Vem får följa dig hem
TTITLE9=Vikingarna - Kan man älska nå'n på avstånd
TTITLE10=Lasse Berghagen - Sträck ut din hand
TTITLE11=Danne Stråhed - Om himlen och Österlen
TTITLE12=Supertrion - Det är skönt att komma hem
TTITLE13=Berth Idoffs - Små, små ord
TTITLE14=Kikki, Bettan and Lotta - Vem e' de' du vill ha
TTITLE15=Ann-Cathrin Wiklander - Vänd inte ryggen mot en vän
TTITLE16=Idolerna - Här kommer kärleken
TTITLE17=Balckjack - Sista Dansen
TTITLE18=The Boppers - Kissing In the Moonlight
TTITLE19=Sten and Stanley - Jag vill vara din Margareta
EXTD=
EXTT0=
EXTT1=
EXTT2=
EXTT3=
EXTT4=
EXTT5=
EXTT6=
EXTT7=
EXTT8=
EXTT9=
EXTT10=
EXTT11=
EXTT12=
EXTT13=
EXTT14=
EXTT15=
EXTT16=
EXTT17=
EXTT18=
EXTT19=
PLAYORDER=
